<svg xmlns="http://www.w3.org/2000/svg" viewBox="0 0 800 500" width="800" height="500" role="img">
<defs>
  <linearGradient id="g5" x1="0" y1="0" x2="1" y2="1">
    <stop offset="0" stop-color="#0b3b38"/><stop offset="1" stop-color="#1e293b"/>
  </linearGradient>
  <pattern id="g5-grid" width="40" height="40" patternUnits="userSpaceOnUse">
    <path d="M40 0H0V40" fill="none" stroke="#ffffff" stroke-opacity="0.07" stroke-width="1"/>
  </pattern>
</defs>
<rect width="800" height="500" fill="url(#g5)"/>
<rect width="800" height="500" fill="url(#g5-grid)"/>
<rect x="280.0" y="115.0" width="240" height="240" rx="22" fill="#ffffff" fill-opacity="0.08" stroke="#99f6e4" stroke-width="4"/><line x1="302.0" y1="89.0" x2="302.0" y2="115.0" stroke="#99f6e4" stroke-width="5" stroke-linecap="round"/><line x1="302.0" y1="355.0" x2="302.0" y2="381.0" stroke="#99f6e4" stroke-width="5" stroke-linecap="round"/><line x1="254.0" y1="137.0" x2="280.0" y2="137.0" stroke="#99f6e4" stroke-width="5" stroke-linecap="round"/><line x1="520.0" y1="137.0" x2="546.0" y2="137.0" stroke="#99f6e4" stroke-width="5" stroke-linecap="round"/><line x1="326.5" y1="89.0" x2="326.5" y2="115.0" stroke="#99f6e4" stroke-width="5" stroke-linecap="round"/><line x1="326.5" y1="355.0" x2="326.5" y2="381.0" stroke="#99f6e4" stroke-width="5" stroke-linecap="round"/><line x1="254.0" y1="161.5" x2="280.0" y2="161.5" stroke="#99f6e4" stroke-width="5" stroke-linecap="round"/><line x1="520.0" y1="161.5" x2="546.0" y2="161.5" stroke="#99f6e4" stroke-width="5" stroke-linecap="round"/><line x1="351.0" y1="89.0" x2="351.0" y2="115.0" stroke="#99f6e4" stroke-width="5" stroke-linecap="round"/><line x1="351.0" y1="355.0" x2="351.0" y2="381.0" stroke="#99f6e4" stroke-width="5" stroke-linecap="round"/><line x1="254.0" y1="186.0" x2="280.0" y2="186.0" stroke="#99f6e4" stroke-width="5" stroke-linecap="round"/><line x1="520.0" y1="186.0" x2="546.0" y2="186.0" stroke="#99f6e4" stroke-width="5" stroke-linecap="round"/><line x1="375.5" y1="89.0" x2="375.5" y2="115.0" stroke="#99f6e4" stroke-width="5" stroke-linecap="round"/><line x1="375.5" y1="355.0" x2="375.5" y2="381.0" stroke="#99f6e4" stroke-width="5" stroke-linecap="round"/><line x1="254.0" y1="210.5" x2="280.0" y2="210.5" stroke="#99f6e4" stroke-width="5" stroke-linecap="round"/><line x1="520.0" y1="210.5" x2="546.0" y2="210.5" stroke="#99f6e4" stroke-width="5" stroke-linecap="round"/><line x1="400.0" y1="89.0" x2="400.0" y2="115.0" stroke="#99f6e4" stroke-width="5" stroke-linecap="round"/><line x1="400.0" y1="355.0" x2="400.0" y2="381.0" stroke="#99f6e4" stroke-width="5" stroke-linecap="round"/><line x1="254.0" y1="235.0" x2="280.0" y2="235.0" stroke="#99f6e4" stroke-width="5" stroke-linecap="round"/><line x1="520.0" y1="235.0" x2="546.0" y2="235.0" stroke="#99f6e4" stroke-width="5" stroke-linecap="round"/><line x1="424.5" y1="89.0" x2="424.5" y2="115.0" stroke="#99f6e4" stroke-width="5" stroke-linecap="round"/><line x1="424.5" y1="355.0" x2="424.5" y2="381.0" stroke="#99f6e4" stroke-width="5" stroke-linecap="round"/><line x1="254.0" y1="259.5" x2="280.0" y2="259.5" stroke="#99f6e4" stroke-width="5" stroke-linecap="round"/><line x1="520.0" y1="259.5" x2="546.0" y2="259.5" stroke="#99f6e4" stroke-width="5" stroke-linecap="round"/><line x1="449.0" y1="89.0" x2="449.0" y2="115.0" stroke="#99f6e4" stroke-width="5" stroke-linecap="round"/><line x1="449.0" y1="355.0" x2="449.0" y2="381.0" stroke="#99f6e4" stroke-width="5" stroke-linecap="round"/><line x1="254.0" y1="284.0" x2="280.0" y2="284.0" stroke="#99f6e4" stroke-width="5" stroke-linecap="round"/><line x1="520.0" y1="284.0" x2="546.0" y2="284.0" stroke="#99f6e4" stroke-width="5" stroke-linecap="round"/><line x1="473.5" y1="89.0" x2="473.5" y2="115.0" stroke="#99f6e4" stroke-width="5" stroke-linecap="round"/><line x1="473.5" y1="355.0" x2="473.5" y2="381.0" stroke="#99f6e4" stroke-width="5" stroke-linecap="round"/><line x1="254.0" y1="308.5" x2="280.0" y2="308.5" stroke="#99f6e4" stroke-width="5" stroke-linecap="round"/><line x1="520.0" y1="308.5" x2="546.0" y2="308.5" stroke="#99f6e4" stroke-width="5" stroke-linecap="round"/><line x1="498.0" y1="89.0" x2="498.0" y2="115.0" stroke="#99f6e4" stroke-width="5" stroke-linecap="round"/><line x1="498.0" y1="355.0" x2="498.0" y2="381.0" stroke="#99f6e4" stroke-width="5" stroke-linecap="round"/><line x1="254.0" y1="333.0" x2="280.0" y2="333.0" stroke="#99f6e4" stroke-width="5" stroke-linecap="round"/><line x1="520.0" y1="333.0" x2="546.0" y2="333.0" stroke="#99f6e4" stroke-width="5" stroke-linecap="round"/><rect x="330" y="165" width="140" height="140" rx="12" fill="none" stroke="#ffffff" stroke-opacity="0.35" stroke-width="2"/><polyline points="340,265 360,265 360,205 380,205 380,265 400,265 400,205 420,205 420,265 440,265 440,205 460,205 460,265" fill="none" stroke="#fbbf24" stroke-width="5" stroke-linejoin="round" stroke-linecap="round"/><text x='400' y='425' text-anchor='middle' fill='#99f6e4' font-size='22' font-weight='600' font-family='ui-monospace, SFMono-Regular, Menlo, Consolas, monospace'>Verilog · Zynq FPGA · CUDA</text><text x='400' y='458' text-anchor='middle' fill='#ffffff' fill-opacity='0.8' font-size='16' font-family='ui-monospace, SFMono-Regular, Menlo, Consolas, monospace'>CORDIC · FFT · MIPS · merge sort · texture memory</text></svg>